<mxfile host="app.diagrams.net" agent="Mozilla/5.0 (Windows NT 10.0; Win64; x64) AppleWebKit/537.36 (KHTML, like Gecko) Chrome/133.0.0.0 Safari/537.36" version="26.0.14">
  <diagram name="Page-1" id="Dsn0FNQETLhpLsESl0oN">
    <mxGraphModel dx="2612" dy="1961" grid="1" gridSize="10" guides="1" tooltips="1" connect="1" arrows="1" fold="1" page="1" pageScale="1" pageWidth="850" pageHeight="1100" math="0" shadow="0">
      <root>
        <mxCell id="0" />
        <mxCell id="1" parent="0" />
        <mxCell id="6sUxFqHKsd50oHg5ydPc-1" value="" style="image;html=1;image=img/lib/clip_art/networking/Router_Icon_128x128.png" vertex="1" parent="1">
          <mxGeometry x="-70" y="210" width="60" height="60" as="geometry" />
        </mxCell>
        <mxCell id="6sUxFqHKsd50oHg5ydPc-2" value="" style="sketch=0;points=[[0.015,0.015,0],[0.985,0.015,0],[0.985,0.985,0],[0.015,0.985,0],[0.25,0,0],[0.5,0,0],[0.75,0,0],[1,0.25,0],[1,0.5,0],[1,0.75,0],[0.75,1,0],[0.5,1,0],[0.25,1,0],[0,0.75,0],[0,0.5,0],[0,0.25,0]];verticalLabelPosition=bottom;html=1;verticalAlign=top;aspect=fixed;align=center;pointerEvents=1;shape=mxgraph.cisco19.rect;prIcon=l2_switch;fillColor=#FAFAFA;strokeColor=#005073;" vertex="1" parent="1">
          <mxGeometry x="-70" y="380" width="60" height="60" as="geometry" />
        </mxCell>
        <mxCell id="6sUxFqHKsd50oHg5ydPc-3" value="" style="image;aspect=fixed;perimeter=ellipsePerimeter;html=1;align=center;shadow=0;dashed=0;spacingTop=3;image=img/lib/active_directory/database_server.svg;" vertex="1" parent="1">
          <mxGeometry x="-200" y="560" width="41" height="50" as="geometry" />
        </mxCell>
        <mxCell id="6sUxFqHKsd50oHg5ydPc-5" value="" style="image;aspect=fixed;perimeter=ellipsePerimeter;html=1;align=center;shadow=0;dashed=0;spacingTop=3;image=img/lib/active_directory/windows_server_2.svg;" vertex="1" parent="1">
          <mxGeometry x="-50" y="560" width="40" height="50" as="geometry" />
        </mxCell>
        <mxCell id="6sUxFqHKsd50oHg5ydPc-6" value="" style="image;aspect=fixed;perimeter=ellipsePerimeter;html=1;align=center;shadow=0;dashed=0;spacingTop=3;image=img/lib/active_directory/generic_server.svg;" vertex="1" parent="1">
          <mxGeometry x="80" y="560" width="28.000000000000004" height="50" as="geometry" />
        </mxCell>
        <mxCell id="6sUxFqHKsd50oHg5ydPc-7" value="" style="image;aspect=fixed;perimeter=ellipsePerimeter;html=1;align=center;shadow=0;dashed=0;spacingTop=3;image=img/lib/active_directory/firewall.svg;" vertex="1" parent="1">
          <mxGeometry x="-50" y="40" width="48.8" height="80" as="geometry" />
        </mxCell>
        <mxCell id="6sUxFqHKsd50oHg5ydPc-9" value="" style="verticalLabelPosition=bottom;html=1;verticalAlign=top;align=center;strokeColor=none;fillColor=#00BEF2;shape=mxgraph.azure.computer;pointerEvents=1;" vertex="1" parent="1">
          <mxGeometry x="660" y="500" width="60" height="60" as="geometry" />
        </mxCell>
        <mxCell id="6sUxFqHKsd50oHg5ydPc-10" value="x" style="fillColor=#28A8E0;verticalLabelPosition=bottom;sketch=0;html=1;strokeColor=#ffffff;verticalAlign=top;align=center;points=[[0.145,0.145,0],[0.5,0,0],[0.855,0.145,0],[1,0.5,0],[0.855,0.855,0],[0.5,1,0],[0.145,0.855,0],[0,0.5,0]];pointerEvents=1;shape=mxgraph.cisco_safe.compositeIcon;bgIcon=ellipse;resIcon=mxgraph.cisco_safe.capability.virtual_private_network;" vertex="1" parent="1">
          <mxGeometry x="600" y="200" width="60" height="60" as="geometry" />
        </mxCell>
        <mxCell id="6sUxFqHKsd50oHg5ydPc-13" value="" style="image;aspect=fixed;perimeter=ellipsePerimeter;html=1;align=center;shadow=0;dashed=0;spacingTop=3;image=img/lib/active_directory/internet_cloud.svg;" vertex="1" parent="1">
          <mxGeometry x="230" y="-130" width="90.48" height="57" as="geometry" />
        </mxCell>
        <mxCell id="6sUxFqHKsd50oHg5ydPc-15" value="" style="verticalLabelPosition=bottom;html=1;verticalAlign=top;align=center;strokeColor=none;fillColor=#00BEF2;shape=mxgraph.azure.computer;pointerEvents=1;" vertex="1" parent="1">
          <mxGeometry x="640" y="570" width="60" height="60" as="geometry" />
        </mxCell>
        <mxCell id="6sUxFqHKsd50oHg5ydPc-16" value="" style="verticalLabelPosition=bottom;html=1;verticalAlign=top;align=center;strokeColor=none;fillColor=#00BEF2;shape=mxgraph.azure.computer;pointerEvents=1;" vertex="1" parent="1">
          <mxGeometry x="550" y="570" width="60" height="60" as="geometry" />
        </mxCell>
        <mxCell id="6sUxFqHKsd50oHg5ydPc-17" value="" style="verticalLabelPosition=bottom;html=1;verticalAlign=top;align=center;strokeColor=none;fillColor=#00BEF2;shape=mxgraph.azure.computer;pointerEvents=1;" vertex="1" parent="1">
          <mxGeometry x="570" y="500" width="60" height="60" as="geometry" />
        </mxCell>
        <mxCell id="6sUxFqHKsd50oHg5ydPc-21" value="" style="endArrow=none;html=1;rounded=0;" edge="1" parent="1" source="6sUxFqHKsd50oHg5ydPc-3" target="6sUxFqHKsd50oHg5ydPc-2">
          <mxGeometry width="50" height="50" relative="1" as="geometry">
            <mxPoint x="320" y="400" as="sourcePoint" />
            <mxPoint x="370" y="350" as="targetPoint" />
          </mxGeometry>
        </mxCell>
        <mxCell id="6sUxFqHKsd50oHg5ydPc-22" value="" style="endArrow=none;html=1;rounded=0;entryX=0.985;entryY=0.985;entryDx=0;entryDy=0;entryPerimeter=0;" edge="1" parent="1" source="6sUxFqHKsd50oHg5ydPc-6" target="6sUxFqHKsd50oHg5ydPc-2">
          <mxGeometry width="50" height="50" relative="1" as="geometry">
            <mxPoint x="-155" y="577" as="sourcePoint" />
            <mxPoint x="-54" y="450" as="targetPoint" />
          </mxGeometry>
        </mxCell>
        <mxCell id="6sUxFqHKsd50oHg5ydPc-23" value="" style="endArrow=none;html=1;rounded=0;" edge="1" parent="1" source="6sUxFqHKsd50oHg5ydPc-5" target="6sUxFqHKsd50oHg5ydPc-2">
          <mxGeometry width="50" height="50" relative="1" as="geometry">
            <mxPoint x="-145" y="587" as="sourcePoint" />
            <mxPoint x="-44" y="460" as="targetPoint" />
          </mxGeometry>
        </mxCell>
      </root>
    </mxGraphModel>
  </diagram>
</mxfile>
